<?xml version="1.0" standalone="no"?><!DOCTYPE svg PUBLIC "-//W3C//DTD SVG 1.1//EN" "http://www.w3.org/Graphics/SVG/1.1/DTD/svg11.dtd"><svg class="icon" width="64px" height="64.00px" viewBox="0 0 1024 1024" version="1.1" xmlns="http://www.w3.org/2000/svg"><path fill="#707070" d="M864.256 537.6s-17.408-47.104-17.408-111.616c0 0-3.584-11.776-7.168-1.024 0 0-2.048 59.904 0 64.512 0 0-16.384 0-20.992-70.144 0 0-1.024-11.776-3.584 0 0 0 0 60.928-10.24 24.064 0 0-9.216-33.28-10.24-54.272 0 0-5.632 3.584-9.216 19.456 0 0-10.24 1.024-13.824-42.496 0 0-3.584-10.24-6.656 0 0 0-4.608 16.384-2.048 24.064 0 0-14.848-2.56-13.824-47.104 0 0-9.216 4.608-7.168 20.992 0 0 0 10.24-7.168 0 0 0-19.456-17.408-40.448-10.24 0 0-5.632-1.024-20.992 14.848l-50.688 53.248s16.384 32.256 50.688 18.432c0 0 8.192-1.024 17.408-9.216 0 0 1.024-23.04 14.848-26.624 0 0 18.432-3.584 33.28 13.824 0 0 16.384 20.992-1.024 39.424 0 0-19.456 54.272-119.808 19.456 0 0 12.8 48.64-49.664 65.536l-4.608 4.608 88.576 74.752s17.408 16.384 37.888 1.024c0 0 59.904-37.888 111.616-4.608 0 0 77.312 50.688 45.056 154.624 0 0-39.424 126.976-161.28 105.984 0 0-105.984-45.056-80.896-139.264l9.216-28.672s11.776-17.408-11.776-32.256l-88.576-79.36s-17.408 47.104-90.112 48.64c0 0 5.632 88.576-92.16 73.728l-139.264 159.232-5.632-4.608 125.44-173.056s-23.04-93.184 67.072-92.16l5.632-5.632s-22.016-60.928 40.448-86.528L148.48 279.552s-16.384-12.8 1.024-39.424c0 0 23.04-12.8 42.496 5.632l276.48 221.184 6.656-6.656s4.608-55.296 65.536-60.928c0 0 4.608-18.432-9.216-41.472 0 0-18.432-32.256 0-58.88 0 0 14.848-24.064 47.104-11.776 0 0 31.232 13.824 14.848 33.28 0 0-12.8 11.776-19.456 12.8 0 0-4.608 49.664 26.624 46.08l53.248-58.88s14.848-17.408-7.168-34.816c0 0-19.456-10.24 4.608-17.408 0 0 9.216 1.024 10.24-7.168 0 0 2.048-4.608-17.408-4.608 0 0-31.232 3.584-28.672-8.192l27.648-4.608s10.24-4.608-3.584-4.608l-31.232-1.024s-16.384 1.024-23.04-9.216l34.816-1.024s9.216 0 6.656-8.192c0 0 0-3.584-11.776-3.584l-71.68-2.56s-4.608-7.168 14.848-8.192l35.84-1.024s9.216-1.024-1.024-7.168c0 0 2.048-1.024-13.824-3.584l-63.488-4.096s-16.384-9.216-1.024-11.776l72.704-2.56s9.216-5.632 0-10.24H463.36s-7.168 2.56-13.824-9.216c0 0-2.56-7.168 10.24-9.216L624.64 143.36s54.272 1.024 63.488 53.248c0 0 3.584 16.384 2.048 39.424 0 0 5.632 16.384 17.408 12.8 0 0 11.776 4.608 25.6-13.824 0 0 3.584-11.776 4.608-19.456 0 0 1.024-24.064 36.864-22.016 0 0 25.6 10.24 36.864 33.28 0 0 12.8 13.824-4.608 28.672 0 0-10.24 14.848-31.232 14.848 0 0-22.016 5.632-20.992 26.624 0 0 1.024 31.232 35.84 26.624 0 0 25.6-17.408 45.056-7.168 0 0 31.232 12.8 31.232 67.072L880.64 552.96c0-0.512-8.192 8.704-16.384-15.36z" /></svg>