<?xml version="1.0" standalone="no"?><!DOCTYPE svg PUBLIC "-//W3C//DTD SVG 1.1//EN" "http://www.w3.org/Graphics/SVG/1.1/DTD/svg11.dtd"><svg class="icon" width="64px" height="64.00px" viewBox="0 0 1024 1024" version="1.1" xmlns="http://www.w3.org/2000/svg"><path fill="#707070" d="M878.976 45.952h93.482667v93.482667h-93.482667zM512 731.733333c-209.365333 0-373.333333-84.565333-373.333333-192.597333S302.634667 346.538667 512 346.538667s373.333333 84.565333 373.333333 192.597333S721.365333 731.733333 512 731.733333z m0-342.528c-179.242667 0-330.666667 68.650667-330.666667 149.930667 0 81.237333 151.424 149.930667 330.666667 149.930667s330.666667-68.650667 330.666667-149.930667c0-81.28-151.424-149.930667-330.666667-149.930667z"  /><path fill="#707070" d="M512 642.901333c-57.216 0-103.765333-46.549333-103.765333-103.765333s46.549333-103.765333 103.765333-103.765333 103.765333 46.549333 103.765333 103.765333-46.549333 103.765333-103.765333 103.765333z m0-164.821333a61.141333 61.141333 0 0 0 0 122.197333c33.664 0 61.098667-27.434667 61.098667-61.098666A61.184 61.184 0 0 0 512 478.08z"  /><path fill="#707070" d="M473.770667 512h32.170666v24.32h-32.170666z"  /><path fill="#707070" d="M512 1015.125333C234.581333 1015.125333 8.874667 789.418667 8.874667 512S234.581333 8.874667 512 8.874667 1015.125333 234.581333 1015.125333 512 789.418667 1015.125333 512 1015.125333z m0-920.917333c-230.357333 0-417.792 187.434667-417.792 417.792S281.642667 929.792 512 929.792s417.792-187.434667 417.792-417.792S742.357333 94.208 512 94.208z"  /></svg>