<?xml version="1.0" standalone="no"?><!DOCTYPE svg PUBLIC "-//W3C//DTD SVG 1.1//EN" "http://www.w3.org/Graphics/SVG/1.1/DTD/svg11.dtd"><svg t="1538016709995" class="icon" style="" viewBox="0 0 1024 1024" version="1.1" xmlns="http://www.w3.org/2000/svg" p-id="2857" xmlns:xlink="http://www.w3.org/1999/xlink" width="64" height="64"><defs><style type="text/css"></style></defs><path d="M546.4 173H98.9c-19 0-34.4 15.4-34.4 34.3v508.5c0 18.9 15.4 34.3 34.4 34.3h68.7c8.4-59.2 59.1-104.9 120.7-104.9S400.6 691 409 750.2h137.5c19 0 34.4-15.4 34.4-34.3V207.3c0-18.9-15.6-34.3-34.5-34.3z" p-id="2858" fill="#eb812f"></path><path d="M288.3 683.7c-46.3 0-83.9 37.5-83.9 83.7s37.6 83.7 83.9 83.7 83.9-37.5 83.9-83.7c0-46.3-37.6-83.7-83.9-83.7zM770.2 683.7c-46.3 0-83.9 37.5-83.9 83.7s37.6 83.7 83.9 83.7c46.3 0 83.9-37.5 83.9-83.7 0-46.3-37.5-83.7-83.9-83.7z" p-id="2859" fill="#eb812f"></path><path d="M933.2 474.9l-76.9-102.2c-15.8-18.9-26.3-34.3-51.6-34.3h-155c-19 0-34.4 15.4-34.4 34.3v343.2c0 18.8 15.3 34.1 34.2 34.3 8.4-59.2 59.1-104.8 120.7-104.8s112.3 45.8 120.7 104.9h34.2c19 0 34.4-15.4 34.4-34.3V544.3c0-32.6-26.3-69.4-26.3-69.4z m-214.7 69.3V407h84.2c5.5 0 13.3 8.1 13.3 8.1l72.4 100c6.4 9.4 13.4 20.6 13.4 29.2H718.5z" p-id="2860" fill="#eb812f"></path></svg>