<?xml version="1.0" standalone="no"?><!DOCTYPE svg PUBLIC "-//W3C//DTD SVG 1.1//EN" "http://www.w3.org/Graphics/SVG/1.1/DTD/svg11.dtd"><svg class="icon" width="400px" height="400.00px" viewBox="0 0 1024 1024" version="1.1" xmlns="http://www.w3.org/2000/svg"><path fill="#707070" d="M571.725 123.773H452.274c-49.473 0-89.592 40.119-89.592 89.591 0 49.473 40.119 89.592 89.592 89.592h119.451c49.473 0 89.592-40.119 89.592-89.592 0-49.472-40.118-89.591-89.592-89.591z m0 119.452H452.274c-16.427 0-29.867-13.437-29.867-29.86 0-16.428 13.439-29.867 29.867-29.867h119.451c16.427 0 29.866 13.44 29.866 29.866 0 16.423-13.439 29.86-29.866 29.86z m0 0M571.725 422.409H452.274c-49.473 0-89.592 40.118-89.592 89.591 0 49.473 40.119 89.591 89.592 89.591h119.451c49.473 0 89.592-40.118 89.592-89.591 0-49.474-40.118-89.591-89.592-89.591z m0 119.451H452.274c-16.427 0-29.867-13.437-29.867-29.86 0-16.427 13.439-29.866 29.867-29.866h119.451c16.427 0 29.866 13.438 29.866 29.866 0 16.422-13.439 29.86-29.866 29.86z m0 0M243.23 780.77c-31.957 0-61.919-12.441-84.515-34.942-22.497-22.593-34.942-52.56-34.942-84.51 0-31.958 12.444-61.918 34.942-84.515 22.596-22.599 52.559-34.943 84.516-34.943h59.726v-59.726h-59.726c-98.952 0-179.183 80.236-179.183 179.183 0 98.946 80.231 179.178 179.183 179.178v59.731l89.585-89.591-89.585-89.592v59.726z m0 0M780.77 183.5h-59.727v59.726h59.726c31.957 0 61.92 12.444 84.516 34.942 22.597 22.597 34.942 52.557 34.942 84.515 0 31.952-12.444 61.918-34.942 84.51-22.597 22.501-52.559 34.942-84.516 34.942v-59.726L691.184 512l89.585 89.591v-59.73c98.952 0 179.183-80.232 179.183-179.179S879.721 183.5 780.77 183.5z m0 0M571.815 840.493l-0.09 0.002H452.274c-16.427 0-29.867-13.437-29.867-29.86 0-16.428 13.439-29.867 29.867-29.867h86.63v-59.726h-86.63c-49.473 0-89.592 40.119-89.592 89.591 0 49.473 40.119 89.592 89.592 89.592h119.451c16.057 0 25.298-4.23 30.465-11.63l-30.375-48.102zM709.894 708.841c-25.077 0-45.443 20.32-45.443 45.443 0 25.074 20.324 45.439 45.443 45.439 25.074 0 45.439-20.32 45.439-45.439 0-25.122-20.319-45.443-45.439-45.443z m0 62.131c-9.242 0-16.733-7.493-16.733-16.733 0-9.238 7.49-16.733 16.733-16.733 9.24 0 16.73 7.495 16.73 16.733s-7.49 16.733-16.73 16.733z m0 0M823.56 728.736h-22.43a95.126 95.126 0 0 0-8.658-20.994l15.833-15.834a7.444 7.444 0 0 0 0-10.54l-25.57-25.568c-1.432-1.436-3.36-2.155-5.247-2.155-1.928 0-3.812 0.72-5.247 2.155l-15.834 15.834a94.935 94.935 0 0 0-20.994-8.658v-22.428c0-4.084-3.364-7.449-7.444-7.449H691.81c-4.08 0-7.444 3.365-7.444 7.449v22.428a94.829 94.829 0 0 0-20.993 8.658l-15.835-15.788c-1.436-1.44-3.364-2.155-5.247-2.155-1.882 0-3.815 0.715-5.251 2.155l-25.566 25.567c-2.872 2.913-2.872 7.624 0 10.54l15.833 15.835a94.878 94.878 0 0 0-8.658 20.993h-22.429c-4.08 0-7.443 3.365-7.443 7.445v36.157c0 4.08 3.363 7.445 7.443 7.445h22.429a94.837 94.837 0 0 0 8.658 20.994l-15.833 15.834c-2.872 2.916-2.872 7.627 0 10.545l25.566 25.566c1.436 1.436 3.369 2.152 5.251 2.152 1.883 0 3.812-0.716 5.247-2.152l15.835-15.838a94.642 94.642 0 0 0 20.993 8.662v22.428c0 4.08 3.364 7.445 7.444 7.445h36.158c4.08 0 7.444-3.365 7.444-7.445v-22.428a94.699 94.699 0 0 0 20.994-8.662l15.834 15.838c1.436 1.436 3.364 2.152 5.247 2.152 1.929 0 3.815-0.716 5.247-2.152l25.57-25.566a7.449 7.449 0 0 0 0-10.545l-15.832-15.834a95.082 95.082 0 0 0 8.658-20.994h22.429c4.084 0 7.448-3.365 7.448-7.445v-36.157c-0.004-4.126-3.365-7.49-7.448-7.49z m-50.063 43.334c-1.432 5.16-3.452 10.093-6.01 14.621l-9.105 16.106-16.105 9.11a64.794 64.794 0 0 1-14.625 6.008l-17.806 4.98-17.81-4.98c-5.158-1.435-10.091-3.455-14.624-6.009l-16.107-9.109-9.105-16.106a64.563 64.563 0 0 1-6.009-14.62l-4.933-17.81 4.98-17.809c1.43-5.16 3.452-10.093 6.008-14.621l9.106-16.107 16.105-9.105a64.748 64.748 0 0 1 14.621-6.013l17.81-4.98 17.81 4.98c5.16 1.436 10.092 3.457 14.625 6.013l16.101 9.105 9.106 16.107c2.561 4.528 4.578 9.42 6.013 14.621l4.975 17.809-5.021 17.81z m0 0" /></svg>