<?xml version="1.0" standalone="no"?><!DOCTYPE svg PUBLIC "-//W3C//DTD SVG 1.1//EN" "http://www.w3.org/Graphics/SVG/1.1/DTD/svg11.dtd"><svg class="icon" width="400px" height="400.00px" viewBox="0 0 1024 1024" version="1.1" xmlns="http://www.w3.org/2000/svg"><path fill="#707070" d="M134.4 243.2c-12.8 0-25.6-12.8-25.6-25.6V44.8c0-12.8 12.8-25.6 25.6-25.6s25.6 12.8 25.6 25.6v166.4c0 19.2-12.8 32-25.6 32zM134.4 710.4c-12.8 0-25.6-12.8-25.6-25.6V390.4c0-12.8 12.8-25.6 25.6-25.6s25.6 12.8 25.6 25.6v294.4c0 12.8-12.8 25.6-25.6 25.6zM134.4 1004.8c-12.8 0-25.6-12.8-25.6-25.6v-115.2c0-12.8 12.8-25.6 25.6-25.6s25.6 12.8 25.6 25.6v115.2c0 12.8-12.8 25.6-25.6 25.6zM979.2 256H416c-19.2 0-32-12.8-32-32s12.8-25.6 25.6-25.6h563.2c12.8 0 25.6 12.8 25.6 25.6s-6.4 32-19.2 32zM812.8 409.6H416c-19.2 0-32-12.8-32-25.6s12.8-25.6 25.6-25.6h396.8c12.8 0 25.6 12.8 25.6 25.6s-6.4 25.6-19.2 25.6zM979.2 710.4H416c-12.8 0-25.6-12.8-25.6-25.6s12.8-25.6 25.6-25.6h563.2c12.8 0 25.6 12.8 25.6 25.6s-12.8 25.6-25.6 25.6zM812.8 864H416c-12.8 0-25.6-12.8-25.6-25.6s12.8-25.6 25.6-25.6h396.8c12.8 0 25.6 12.8 25.6 25.6s-12.8 25.6-25.6 25.6zM134.4 416c-64 0-115.2-51.2-115.2-115.2s51.2-115.2 115.2-115.2 115.2 51.2 115.2 115.2c-6.4 64-57.6 115.2-115.2 115.2z m0-172.8c-32 0-57.6 25.6-57.6 57.6s25.6 57.6 57.6 57.6 57.6-25.6 57.6-57.6-32-57.6-57.6-57.6zM134.4 876.8c-64 0-115.2-51.2-115.2-115.2s51.2-115.2 115.2-115.2 108.8 57.6 108.8 121.6-51.2 108.8-108.8 108.8z m0-166.4c-32 0-57.6 25.6-57.6 57.6s25.6 57.6 57.6 57.6 57.6-25.6 57.6-57.6-32-57.6-57.6-57.6z" /></svg>