<?xml version="1.0" standalone="no"?><!DOCTYPE svg PUBLIC "-//W3C//DTD SVG 1.1//EN" "http://www.w3.org/Graphics/SVG/1.1/DTD/svg11.dtd"><svg class="icon" width="64px" height="64.00px" viewBox="0 0 1024 1024" version="1.1" xmlns="http://www.w3.org/2000/svg"><path fill="#707070" d="M782.403 209.141h3.908c22.335 0 40.61-18.274 40.61-40.61v-32.255h27.952c22.336 0 40.61-18.274 40.61-40.61V62.598H129.624v33.068c0 22.336 18.274 40.61 40.61 40.61h26.927v32.255c0 22.336 18.275 40.61 40.61 40.61h4.01c0.024 97.932 30.762 190.333 108.095 253.831 6.8 6.119 22.942 20.713 31.147 28.708 6.291 7.063 11.245 14.122 11.59 19.125 0.827 11.986-13.997 27.101-25.81 37.155a3.07 3.07 0 0 0-0.484 0.531c-89.402 63.475-124.48 161.694-124.537 266.235h-4.012c-22.335 0-40.61 18.274-40.61 40.61v32.255h-26.927c-22.336 0-40.61 18.274-40.61 40.61v33.068h765.859v-33.066c0-22.336-18.274-40.61-40.61-40.61h-27.953v-32.255c0-22.336-18.274-40.61-40.61-40.61H782.4c-0.058-104.297-35.742-201.959-124.61-265.477a2.834 2.834 0 0 0-0.885-1.289c-11.814-10.054-26.636-25.17-25.81-37.155 0.345-5.003 5.3-12.062 11.59-19.125 10.563-10.292 34.288-31.529 34.288-31.529l-0.204-0.145c75.043-63.386 105.61-154.287 105.634-250.867zM654.256 398.077s-7.616 9.123-24.666 22.87c-8.09 8.24-16.588 15.78-25.435 22.477-14.028 13.823-29.433 31.906-32.515 47.103h-0.866c-2.398 13.004-6.482 55.876 34.305 90.483 17.59 14.924 22.465 19.575 21.522 19.431 0.996 0.98 2.004 1.938 2.987 2.941 17.05 13.747 24.666 22.87 24.666 22.87 59.723 50.112 66.14 161.006 66.805 188.477h-75.902c2.012-70.12-40.26-118.053-47.834-127.993-7.644-10.033-21.02-23.887-51.595-59.24-30.575-35.352-18.153-92.202-11.465-122.3 6.688-30.097 48.251-72.138 63.061-89.815 14.81-17.676 13.377-30.575 13.377-30.575H415.784s-1.434 12.899 13.376 30.575c14.81 17.677 56.373 59.718 63.062 89.815s19.109 86.948-11.467 122.3-43.952 49.207-51.595 59.24c-7.573 9.94-49.845 57.874-47.833 127.993h-77.13c0.664-27.47 7.083-138.364 66.805-188.477 0 0 7.615-9.123 24.665-22.87 0.984-1.002 1.992-1.96 2.988-2.94-0.943 0.143 3.933-4.508 21.522-19.432 40.787-34.607 36.704-77.479 34.305-90.483h-0.867c-3.08-15.197-18.487-33.28-32.514-47.103-8.847-6.697-17.345-14.236-25.436-22.477C378.616 407.2 371 398.077 371 398.077c-59.532-49.952-66.099-160.29-66.8-188.203h416.848c-0.694 27.913-7.26 138.252-66.792 188.203z" /></svg>