<?xml version="1.0" standalone="no"?><!DOCTYPE svg PUBLIC "-//W3C//DTD SVG 1.1//EN" "http://www.w3.org/Graphics/SVG/1.1/DTD/svg11.dtd"><svg class="icon" width="64px" height="53.89px" viewBox="0 0 1216 1024" version="1.1" xmlns="http://www.w3.org/2000/svg"><path fill="#707070" d="M1125.386139 709.70297c-314.29703-60.831683-253.465347-136.871287-253.465347-136.871287H811.089109c-35.485149 202.772277 506.930693 126.732673 294.019802 299.089109-187.564356 152.079208-628.594059 20.277228-628.59406 20.277228l-60.831683 60.831683c704.633663 238.257426 953.029703-197.70297 709.702971-243.326733zM304.158416 638.732673c-70.970297 0-126.732673-55.762376-126.732673-126.732673S233.188119 385.267327 304.158416 385.267327s126.732673 55.762376 126.732673 126.732673-55.762376 126.732673-126.732673 126.732673z m263.60396 50.69307c5.069307-10.138614 15.207921-25.346535 20.277228-35.485149 20.277228-35.485149 30.415842-70.970297 30.415842-106.455445 0-162.217822-136.871287-288.950495-309.227723-288.950496C136.871287 258.534653 0 385.267327 0 542.415842v25.346534c0 15.207921 5.069307 30.415842 10.138614 45.623763 10.138614 30.415842 25.346535 60.831683 40.554455 86.178217 86.178218 136.871287 258.534653 253.465347 258.534654 253.465347s172.356436-121.663366 258.534653-263.60396z m273.742574-572.831684c50.693069 0 96.316832 40.554455 96.316832 96.316832S892.19802 304.158416 841.50495 304.158416s-96.316832-40.554455-96.316831-96.316832 45.623762-91.247525 96.316831-91.247525z m5.069307 395.405941S1064.554455 349.782178 1064.554455 217.980198C1064.554455 101.386139 968.237624 5.069307 846.574257 5.069307S638.732673 101.386139 628.594059 217.980198c-5.069307 131.80198 217.980198 294.019802 217.980198 294.019802z" /></svg>